<?xml version="1.0" encoding="UTF-8"?>
<svg xmlns="http://www.w3.org/2000/svg" width="900" height="420" viewBox="0 0 900 420">
<rect width="100%" height="100%" fill="#fafafa"/>
<rect x="64" y="40" width="812" height="332" fill="#fff" stroke="#ccc"/>
<text x="450" y="24" text-anchor="middle" font-family="Segoe UI,Arial" font-size="16" fill="#222">Altitude h(t)</text>
<text x="450" y="408" text-anchor="middle" font-family="Segoe UI,Arial" font-size="12" fill="#555">t, s</text>
<text x="16" y="210" text-anchor="middle" font-family="Segoe UI,Arial" font-size="12" fill="#555" transform="rotate(-90 16 210)">h, m</text>
<line x1="64" y1="40" x2="876" y2="40" stroke="#eee"/>
<text x="58" y="44" text-anchor="end" font-size="10" fill="#666" font-family="Consolas,monospace">1940.12</text>
<line x1="64" y1="106,4" x2="876" y2="106,4" stroke="#eee"/>
<text x="58" y="110,4" text-anchor="end" font-size="10" fill="#666" font-family="Consolas,monospace">1523.36</text>
<line x1="64" y1="172,8" x2="876" y2="172,8" stroke="#eee"/>
<text x="58" y="176,8" text-anchor="end" font-size="10" fill="#666" font-family="Consolas,monospace">1106.61</text>
<line x1="64" y1="239,2" x2="876" y2="239,2" stroke="#eee"/>
<text x="58" y="243,2" text-anchor="end" font-size="10" fill="#666" font-family="Consolas,monospace">689.85</text>
<line x1="64" y1="305,6" x2="876" y2="305,6" stroke="#eee"/>
<text x="58" y="309,6" text-anchor="end" font-size="10" fill="#666" font-family="Consolas,monospace">273.1</text>
<line x1="64" y1="372" x2="876" y2="372" stroke="#eee"/>
<text x="58" y="376" text-anchor="end" font-size="10" fill="#666" font-family="Consolas,monospace">-143.66</text>
<line x1="64" y1="349,1111" x2="876" y2="349,1111" stroke="#999" stroke-dasharray="4 3"/>
<polyline fill="none" stroke="#222" stroke-width="2" points="64,62.9 64.92,64.03 65.85,65.15 66.77,66.26 67.69,67.35 68.61,68.43 69.54,69.5 70.46,70.55 71.38,71.6 72.3,72.63 73.23,73.65 74.15,74.66 75.07,75.66 75.99,76.65 76.92,77.62 77.84,78.59 78.76,79.55 79.68,80.5 80.61,81.45 81.53,82.38 82.45,83.31 83.37,84.22 84.3,85.13 85.22,86.04 86.14,86.93 87.06,87.82 87.99,88.7 88.91,89.57 89.83,90.44 90.75,91.3 91.68,92.15 92.6,93 93.52,93.84 94.44,94.67 95.37,95.5 96.29,96.32 97.21,97.14 98.13,97.95 99.06,98.75 99.98,99.55 100.9,100.34 101.83,101.13 102.75,101.92 103.67,102.7 104.59,103.47 105.52,104.24 106.44,105 107.36,105.77 108.28,106.52 109.21,107.27 110.13,108.02 111.05,108.76 111.97,109.5 112.9,110.24 113.82,110.97 114.74,111.7 115.66,112.42 116.59,113.15 117.51,113.86 118.43,114.58 119.35,115.29 120.28,116 121.2,116.7 122.12,117.4 123.04,118.1 123.97,118.79 124.89,119.49 125.81,120.18 126.73,120.86 127.66,121.55 128.58,122.23 129.5,122.91 130.43,123.58 131.35,124.26 132.27,124.93 133.19,125.6 134.12,126.26 135.04,126.93 135.96,127.59 136.88,128.25 137.81,128.91 138.73,129.56 139.65,130.22 140.57,130.87 141.5,131.52 142.42,132.17 143.34,132.81 144.26,133.46 145.19,134.1 146.11,134.74 147.03,135.38 147.95,136.02 148.88,136.65 149.8,137.28 150.72,137.92 151.64,138.55 152.57,139.17 153.49,139.8 154.41,140.43 155.33,141.05 156.26,141.67 157.18,142.29 158.1,142.91 159.03,143.53 159.95,144.14 160.87,144.76 161.79,145.37 162.72,145.98 163.64,146.59 164.56,147.19 165.48,147.8 166.41,148.4 167.33,149.01 168.25,149.61 169.17,150.21 170.1,150.8 171.02,151.4 171.94,151.99 172.86,152.59 173.79,153.18 174.71,153.77 175.63,154.36 176.55,154.94 177.48,155.53 178.4,156.11 179.32,156.69 180.24,157.27 181.17,157.85 182.09,158.43 183.01,159.01 183.93,159.58 184.86,160.15 185.78,160.72 186.7,161.29 187.63,161.86 188.55,162.43 189.47,163 190.39,163.56 191.32,164.12 192.24,164.68 193.16,165.24 194.08,165.8 195.01,166.36 195.93,166.91 196.85,167.47 197.77,168.02 198.7,168.57 199.62,169.12 200.54,169.67 201.46,170.22 202.39,170.76 203.31,171.31 204.23,171.85 205.15,172.39 206.08,172.93 207,173.47 207.92,174.01 208.84,174.54 209.77,175.08 210.69,175.61 211.61,176.14 212.53,176.67 213.46,177.2 214.38,177.73 215.3,178.26 216.22,178.78 217.15,179.31 218.07,179.83 218.99,180.35 219.91,180.87 220.84,181.39 221.76,181.91 222.68,182.42 223.6,182.94 224.53,183.45 225.45,183.96 226.37,184.48 227.29,184.98 228.22,185.49 229.14,186 230.06,186.51 230.98,187.01 231.9,187.52 232.83,188.02 233.75,188.52 234.67,189.02 235.59,189.52 236.52,190.02 237.44,190.51 238.36,191.01 239.28,191.5 240.21,191.99 241.13,192.48 242.05,192.98 242.97,193.46 243.9,193.95 244.82,194.44 245.74,194.92 246.66,195.41 247.59,195.89 248.51,196.37 249.43,196.86 250.35,197.34 251.28,197.81 252.2,198.29 253.12,198.77 254.04,199.24 254.96,199.72 255.89,200.19 256.81,200.66 257.73,201.13 258.65,201.6 259.58,202.07 260.5,202.54 261.42,203.01 262.34,203.47 263.27,203.94 264.19,204.4 265.11,204.86 266.03,205.32 266.96,205.78 267.88,206.24 268.8,206.7 269.72,207.15 270.65,207.61 271.57,208.06 272.49,208.52 273.41,208.97 274.34,209.42 275.26,209.87 276.18,210.32 277.1,210.77 278.02,211.22 278.95,211.66 279.87,212.11 280.79,212.55 281.71,213 282.64,213.44 283.56,213.88 284.48,214.32 285.4,214.76 286.33,215.2 287.25,215.64 288.17,216.07 289.09,216.51 290.02,216.94 290.94,217.37 291.86,217.81 292.78,218.24 293.71,218.67 294.63,219.1 295.55,219.53 296.47,219.95 297.4,220.38 298.32,220.81 299.24,221.23 300.16,221.66 301.09,222.08 302.01,222.5 302.93,222.92 303.85,223.34 304.77,223.76 305.7,224.18 306.62,224.6 307.54,225.01 308.46,225.43 309.39,225.84 310.31,226.26 311.23,226.67 312.15,227.08 313.08,227.49 314,227.9 314.92,228.31 315.84,228.72 316.77,229.13 317.69,229.53 318.61,229.94 319.53,230.34 320.46,230.75 321.38,231.15 322.3,231.55 323.22,231.95 324.15,232.35 325.07,232.75 325.99,233.15 326.91,233.55 327.83,233.94 328.76,234.34 329.68,234.73 330.6,235.13 331.52,235.52 332.45,235.91 333.37,236.3 334.29,236.69 335.21,237.08 336.14,237.47 337.06,237.86 337.98,238.25 338.9,238.63 339.83,239.02 340.75,239.4 341.67,239.79 342.59,240.17 343.52,240.55 344.44,240.93 345.36,241.31 346.28,241.69 347.21,242.07 348.13,242.45 349.05,242.82 349.97,243.2 350.89,243.57 351.82,243.95 352.74,244.32 353.66,244.69 354.58,245.06 355.51,245.43 356.43,245.8 357.35,246.17 358.27,246.54 359.2,246.91 360.12,247.27 361.04,247.64 361.96,248.01 362.89,248.37 363.81,248.73 364.73,249.1 365.66,249.46 366.58,249.82 367.5,250.18 368.42,250.54 369.35,250.9 370.27,251.25 371.19,251.61 372.12,251.97 373.04,252.32 373.96,252.68 374.88,253.03 375.81,253.38 376.73,253.74 377.65,254.09 378.57,254.44 379.5,254.79 380.42,255.14 381.34,255.48 382.27,255.83 383.19,256.18 384.11,256.53 385.03,256.87 385.96,257.22 386.88,257.56 387.8,257.9 388.72,258.24 389.65,258.59 390.57,258.93 391.49,259.27 392.42,259.61 393.34,259.95 394.26,260.28 395.18,260.62 396.11,260.96 397.03,261.29 397.95,261.63 398.87,261.96 399.8,262.3 400.72,262.63 401.64,262.96 402.57,263.29 403.49,263.63 404.41,263.96 405.33,264.29 406.26,264.61 407.18,264.94 408.1,265.27 409.03,265.6 409.95,265.92 410.87,266.25 411.79,266.57 412.72,266.9 413.64,267.22 414.56,267.55 415.48,267.87 416.41,268.19 417.33,268.51 418.25,268.83 419.18,269.15 420.1,269.47 421.02,269.79 421.94,270.1 422.87,270.42 423.79,270.74 424.71,271.05 425.63,271.37 426.56,271.68 427.48,272 428.4,272.31 429.33,272.62 430.25,272.94 431.17,273.25 432.09,273.56 433.02,273.87 433.94,274.18 434.86,274.49 435.79,274.8 436.71,275.1 437.63,275.41 438.55,275.72 439.48,276.02 440.4,276.33 441.32,276.63 442.24,276.94 443.17,277.24 444.09,277.55 445.01,277.85 445.94,278.15 446.86,278.45 447.78,278.75 448.7,279.05 449.63,279.35 450.55,279.65 451.47,279.95 452.39,280.25 453.32,280.55 454.24,280.84 455.16,281.14 456.09,281.44 457.01,281.73 457.93,282.03 458.85,282.32 459.78,282.61 460.7,282.91 461.62,283.2 462.55,283.49 463.47,283.78 464.39,284.08 465.31,284.37 466.24,284.66 467.16,284.95 468.08,285.24 469,285.52 469.93,285.81 470.85,286.1 471.77,286.39 472.7,286.67 473.62,286.96 474.54,287.25 475.46,287.53 476.39,287.82 477.31,288.1 478.23,288.38 479.15,288.67 480.08,288.95 481,289.23 481.92,289.51 482.85,289.79 483.77,290.08 484.69,290.36 485.61,290.64 486.54,290.91 487.46,291.19 488.38,291.47 489.3,291.75 490.23,292.03 491.15,292.31 492.07,292.58 493,292.86 493.92,293.13 494.84,293.41 495.76,293.68 496.69,293.96 497.61,294.23 498.53,294.51 499.46,294.78 500.38,295.05 501.3,295.32 502.22,295.6 503.15,295.87 504.07,296.14 504.99,296.41 505.91,296.68 506.84,296.95 507.76,297.22 508.68,297.49 509.61,297.76 510.53,298.02 511.45,298.29 512.37,298.56 513.3,298.83 514.22,299.09 515.14,299.36 516.06,299.63 516.99,299.89 517.91,300.16 518.83,300.42 519.76,300.69 520.68,300.95 521.6,301.21 522.52,301.48 523.45,301.74 524.37,302 525.29,302.27 526.22,302.53 527.14,302.79 528.06,303.05 528.98,303.31 529.91,303.57 530.83,303.83 531.75,304.09 532.67,304.35 533.6,304.61 534.52,304.87 535.44,305.13 536.37,305.39 537.29,305.64 538.21,305.9 539.13,306.16 540.06,306.42 540.98,306.67 541.9,306.93 542.82,307.18 543.75,307.44 544.67,307.69 545.59,307.95 546.52,308.2 547.44,308.46 548.36,308.71 549.28,308.97 550.21,309.22 551.13,309.47 552.05,309.72 552.97,309.97 553.9,310.23 554.82,310.48 555.74,310.73 556.67,310.98 557.59,311.23 558.51,311.47 559.43,311.72 560.36,311.97 561.28,312.22 562.2,312.46 563.13,312.71 564.05,312.96 564.97,313.2 565.89,313.44 566.82,313.69 567.74,313.93 568.66,314.17 569.58,314.41 570.51,314.66 571.43,314.9 572.35,315.14 573.28,315.37 574.2,315.61 575.12,315.85 576.04,316.09 576.97,316.32 577.89,316.56 578.81,316.79 579.73,317.03 580.66,317.26 581.58,317.49 582.5,317.72 583.43,317.95 584.35,318.18 585.27,318.41 586.19,318.64 587.12,318.87 588.04,319.1 588.96,319.32 589.89,319.55 590.81,319.77 591.73,319.99 592.65,320.22 593.58,320.44 594.5,320.66 595.42,320.88 596.34,321.1 597.27,321.32 598.19,321.54 599.11,321.75 600.04,321.97 600.96,322.18 601.88,322.4 602.8,322.61 603.73,322.82 604.65,323.03 605.57,323.24 606.49,323.45 607.42,323.66 608.34,323.87 609.26,324.08 610.19,324.28 611.11,324.49 612.03,324.69 612.95,324.89 613.88,325.1 614.8,325.3 615.72,325.5 616.64,325.7 617.57,325.9 618.49,326.09 619.41,326.29 620.34,326.49 621.26,326.68 622.18,326.87 623.1,327.07 624.03,327.26 624.95,327.45 625.87,327.64 626.8,327.83 627.72,328.02 628.64,328.2 629.56,328.39 630.49,328.58 631.41,328.76 632.33,328.94 633.25,329.13 634.18,329.31 635.1,329.49 636.02,329.67 636.95,329.84 637.87,330.02 638.79,330.2 639.71,330.37 640.64,330.55 641.56,330.72 642.48,330.9 643.4,331.07 644.33,331.24 645.25,331.41 646.17,331.58 647.1,331.74 648.02,331.91 648.94,332.08 649.86,332.24 650.79,332.41 651.71,332.57 652.63,332.73 653.56,332.89 654.48,333.05 655.4,333.21 656.32,333.37 657.24,333.52 658.17,333.68 659.09,333.83 660.01,333.99 660.93,334.14 661.85,334.29 662.78,334.44 663.7,334.59 664.62,334.73 665.54,334.88 666.46,335.02 667.39,335.17 668.31,335.31 669.23,335.45 670.15,335.59 671.07,335.73 672,335.87 672.92,336 673.84,336.14 674.76,336.27 675.68,336.4 676.61,336.54 677.53,336.67 678.45,336.8 679.37,336.93 680.29,337.06 681.22,337.19 682.14,337.32 683.06,337.45 683.98,337.57 684.91,337.7 685.83,337.83 686.75,337.95 687.67,338.08 688.59,338.2 689.52,338.33 690.44,338.45 691.36,338.57 692.28,338.7 693.2,338.82 694.13,338.94 695.05,339.06 695.97,339.18 696.89,339.3 697.81,339.41 698.74,339.53 699.66,339.65 700.58,339.76 701.5,339.88 702.42,339.99 703.35,340.11 704.27,340.22 705.19,340.33 706.11,340.44 707.03,340.55 707.96,340.66 708.88,340.77 709.8,340.88 710.72,340.99 711.64,341.09 712.57,341.2 713.49,341.3 714.41,341.41 715.33,341.51 716.25,341.61 717.18,341.71 718.1,341.81 719.02,341.91 719.94,342.01 720.87,342.11 721.79,342.21 722.71,342.31 723.63,342.4 724.55,342.5 725.48,342.59 726.4,342.68 727.32,342.77 728.24,342.87 729.16,342.96 730.09,343.05 731.01,343.14 731.93,343.22 732.85,343.31 733.77,343.4 734.7,343.48 735.62,343.57 736.54,343.65 737.46,343.73 738.38,343.82 739.31,343.9 740.23,343.98 741.15,344.06 742.07,344.14 742.99,344.21 743.92,344.29 744.84,344.37 745.76,344.44 746.68,344.52 747.6,344.59 748.53,344.66 749.45,344.73 750.37,344.8 751.29,344.87 752.21,344.94 753.14,345.01 754.06,345.08 754.98,345.15 755.9,345.21 756.83,345.28 757.75,345.34 758.67,345.4 759.59,345.47 760.51,345.53 761.44,345.59 762.36,345.65 763.28,345.71 764.2,345.76 765.12,345.82 766.05,345.88 766.97,345.93 767.89,345.99 768.81,346.04 769.73,346.1 770.66,346.15 771.58,346.21 772.5,346.26 773.42,346.31 774.34,346.36 775.27,346.41 776.19,346.47 777.11,346.52 778.03,346.57 778.95,346.61 779.88,346.66 780.8,346.71 781.72,346.76 782.64,346.8 783.56,346.84 784.49,346.88 785.41,346.92 786.33,346.96 787.25,347 788.17,347.04 789.1,347.08 790.02,347.12 790.94,347.16 791.86,347.2 792.79,347.24 793.71,347.28 794.63,347.32 795.55,347.36 796.47,347.4 797.4,347.44 798.32,347.48 799.24,347.52 800.16,347.56 801.08,347.6 802.01,347.64 802.93,347.68 803.85,347.72 804.77,347.76 805.69,347.8 806.62,347.84 807.54,347.88 808.46,347.92 809.38,347.96 810.3,348 811.23,348.04 812.15,348.08 813.07,348.12 813.99,348.16 814.91,348.2 815.84,348.23 816.76,348.27 817.68,348.3 818.6,348.33 819.52,348.36 820.45,348.39 821.37,348.41 822.29,348.44 823.21,348.46 824.13,348.48 825.06,348.5 825.98,348.52 826.9,348.53 827.82,348.55 828.74,348.56 829.67,348.58 830.59,348.59 831.51,348.6 832.43,348.61 833.36,348.63 834.28,348.64 835.2,348.65 836.12,348.66 837.04,348.67 837.97,348.68 838.89,348.69 839.81,348.7 840.73,348.72 841.65,348.73 842.58,348.74 843.5,348.75 844.42,348.76 845.34,348.77 846.26,348.78 847.19,348.79 848.11,348.8 849.03,348.81 849.95,348.82 850.87,348.83 851.8,348.84 852.72,348.85 853.64,348.86 854.56,348.87 855.48,348.88 856.41,348.89 857.33,348.9 858.25,348.91 859.17,348.92 860.09,348.93 861.02,348.94 861.94,348.95 862.35,348.95 862.45,348.95 862.54,348.95 862.63,348.96 862.72,348.96 862.81,348.96 862.91,348.96 863,348.96 863.09,348.96 863.18,348.96 863.28,348.96 863.37,348.96 863.46,348.96 863.55,348.97 863.64,348.97 863.74,348.97 863.83,348.97 863.92,348.97 864.01,348.97 864.11,348.97 864.2,348.97 864.29,348.97 864.38,348.97 864.47,348.98 864.57,348.98 864.66,348.98 864.75,348.98 864.84,348.98 864.94,348.98 865.03,348.98 865.12,348.98 865.21,348.98 865.3,348.98 865.4,348.99 865.49,348.99 865.58,348.99 865.67,348.99 865.77,348.99 865.86,348.99 865.95,348.99 866.04,348.99 866.13,348.99 866.23,348.99 866.32,349 866.41,349 866.5,349 866.6,349 866.69,349 866.78,349 866.87,349 866.96,349 867.06,349 867.15,349.01 867.24,349.01 867.33,349.01 867.42,349.01 867.52,349.01 867.61,349.01 867.7,349.01 867.79,349.01 867.89,349.01 867.98,349.01 868.07,349.02 868.16,349.02 868.25,349.02 868.35,349.02 868.44,349.02 868.53,349.02 868.62,349.02 868.72,349.02 868.81,349.02 868.9,349.02 868.99,349.03 869.08,349.03 869.18,349.03 869.27,349.03 869.36,349.03 869.45,349.03 869.55,349.03 869.64,349.03 869.73,349.03 869.82,349.03 869.91,349.04 870.01,349.04 870.1,349.04 870.19,349.04 870.28,349.04 870.38,349.04 870.47,349.04 870.56,349.04 870.65,349.04 870.74,349.04 870.84,349.05 870.93,349.05 871.02,349.05 871.11,349.05 871.21,349.05 871.3,349.05 871.39,349.05 871.48,349.05 871.57,349.05 871.67,349.06 871.76,349.06 871.85,349.06 871.94,349.06 872.04,349.06 872.13,349.06 872.22,349.06 872.31,349.06 872.4,349.06 872.5,349.06 872.59,349.07 872.68,349.07 872.77,349.07 872.87,349.07 872.96,349.07 873.05,349.07 873.14,349.07 873.23,349.07 873.33,349.07 873.42,349.07 873.51,349.08 873.6,349.08 873.69,349.08 873.79,349.08 873.88,349.08 873.97,349.08 874.06,349.08 874.16,349.08 874.25,349.08 874.34,349.08 874.43,349.09 874.52,349.09 874.62,349.09 874.71,349.09 874.8,349.09 874.89,349.09 874.99,349.09 875.08,349.09 875.17,349.09 875.26,349.1 875.35,349.1 875.45,349.1 875.54,349.1 875.63,349.1 875.72,349.1 875.82,349.1 875.91,349.1 876,349.1 876,349.1"/>
<circle cx="64" cy="62,9" r="4" fill="#888"/>
<circle cx="876" cy="349,1" r="4" fill="#222"/>
</svg>
