<?xml version="1.0" encoding="UTF-8"?>
<svg xmlns="http://www.w3.org/2000/svg" width="900" height="420" viewBox="0 0 900 420">
<rect width="100%" height="100%" fill="#fafafa"/>
<rect x="64" y="40" width="812" height="332" fill="#fff" stroke="#ccc"/>
<text x="450" y="24" text-anchor="middle" font-family="Segoe UI,Arial" font-size="16" fill="#222">Thrust F(t)</text>
<text x="450" y="408" text-anchor="middle" font-family="Segoe UI,Arial" font-size="12" fill="#555">t, s</text>
<text x="16" y="210" text-anchor="middle" font-family="Segoe UI,Arial" font-size="12" fill="#555" transform="rotate(-90 16 210)">F, kN</text>
<line x1="64" y1="40" x2="876" y2="40" stroke="#eee"/>
<text x="58" y="44" text-anchor="end" font-size="10" fill="#666" font-family="Consolas,monospace">891.32</text>
<line x1="64" y1="106,4" x2="876" y2="106,4" stroke="#eee"/>
<text x="58" y="110,4" text-anchor="end" font-size="10" fill="#666" font-family="Consolas,monospace">713.06</text>
<line x1="64" y1="172,8" x2="876" y2="172,8" stroke="#eee"/>
<text x="58" y="176,8" text-anchor="end" font-size="10" fill="#666" font-family="Consolas,monospace">534.79</text>
<line x1="64" y1="239,2" x2="876" y2="239,2" stroke="#eee"/>
<text x="58" y="243,2" text-anchor="end" font-size="10" fill="#666" font-family="Consolas,monospace">356.53</text>
<line x1="64" y1="305,6" x2="876" y2="305,6" stroke="#eee"/>
<text x="58" y="309,6" text-anchor="end" font-size="10" fill="#666" font-family="Consolas,monospace">178.26</text>
<line x1="64" y1="372" x2="876" y2="372" stroke="#eee"/>
<text x="58" y="376" text-anchor="end" font-size="10" fill="#666" font-family="Consolas,monospace">0</text>
<polyline fill="none" stroke="#444" stroke-width="2" points="64,156.66 65.15,159.52 66.3,162.34 67.45,165.06 68.6,167.67 69.75,170.19 70.9,172.61 72.05,174.94 73.21,177.18 74.36,179.34 75.51,181.42 76.66,183.42 77.81,185.34 78.96,187.19 80.11,188.97 81.26,190.69 82.41,192.34 83.56,193.93 84.71,195.45 85.86,196.93 87.01,198.35 88.16,199.71 89.32,201.03 90.47,202.29 91.62,203.51 92.77,204.68 93.92,205.81 95.07,206.9 96.22,207.94 97.37,208.95 98.52,209.92 99.67,210.85 100.82,211.75 101.97,212.62 103.12,213.37 104.27,213.59 105.42,215.14 106.58,215.39 107.73,216.33 108.88,217.2 110.03,217.47 111.18,218.3 112.33,219.07 113.48,219.18 114.63,220.2 115.78,220.68 116.93,220.92 118.08,221.47 119.23,222.2 120.38,222.52 121.53,223.13 122.69,223.58 123.84,224 124.99,224.42 126.14,224.82 127.29,225.2 128.44,225.57 129.59,225.93 130.74,226.27 131.89,226.6 133.04,226.92 134.19,227.23 135.34,227.53 136.49,227.81 137.64,228.09 138.8,228.35 139.95,228.61 141.1,228.86 142.25,229.09 143.4,229.32 144.55,229.54 145.7,229.76 146.85,229.97 148,230.17 149.15,230.36 150.3,230.55 151.45,230.72 152.6,230.89 153.75,231.06 154.91,231.22 156.06,231.38 157.21,231.53 158.36,231.67 159.51,231.82 160.66,231.95 161.81,232.08 162.96,232.21 164.11,232.33 165.26,232.45 166.41,232.56 167.56,232.67 168.71,232.78 169.86,232.88 171.02,232.98 172.17,233.07 173.32,233.17 174.47,233.26 175.62,233.35 176.77,233.43 177.92,233.51 179.07,233.59 180.22,233.67 181.37,233.74 182.52,233.82 183.67,233.89 184.82,233.96 185.97,234.02 187.13,234.09 188.28,234.15 189.43,234.21 190.58,234.27 191.73,234.33 192.88,234.38 194.03,234.43 195.18,234.48 196.33,234.54 197.48,234.59 198.63,234.64 199.78,234.68 200.93,234.74 202.08,234.78 203.24,234.82 204.39,234.87 205.54,234.91 206.69,234.95 207.84,234.99 208.99,235.03 210.14,235.06 211.29,235.1 212.44,235.14 213.59,235.18 214.74,235.21 215.89,235.24 217.04,235.27 218.19,235.31 219.34,235.34 220.5,235.37 221.65,235.4 222.8,235.43 223.95,235.46 225.1,235.5 226.25,235.52 227.4,235.55 228.55,235.58 229.7,235.6 230.85,235.63 232,235.66 233.15,235.69 234.3,235.71 235.45,235.74 236.61,235.76 237.76,235.79 238.91,235.81 240.06,235.83 241.21,235.86 242.36,235.88 243.51,235.9 244.66,235.93 245.81,235.95 246.96,235.97 248.11,235.99 249.26,236.02 250.41,236.04 251.56,236.06 252.72,236.09 253.87,236.11 255.02,236.13 256.17,236.15 257.32,236.17 258.47,236.19 259.62,236.21 260.77,236.24 261.92,236.25 263.07,236.27 264.22,236.29 265.37,236.32 266.52,236.33 267.67,236.35 268.83,236.38 269.98,236.39 271.13,236.41 272.28,236.43 273.43,236.45 274.58,236.47 275.73,236.49 276.88,236.51 278.03,236.53 279.18,236.54 280.33,236.57 281.48,236.58 282.63,236.61 283.78,236.62 284.94,236.64 286.09,236.66 287.24,236.68 288.39,236.7 289.54,236.72 290.69,236.73 291.84,236.75 292.99,236.77 294.14,236.79 295.29,236.81 296.44,236.82 297.59,236.85 298.74,236.86 299.89,236.88 301.05,236.9 302.2,236.92 303.35,236.94 304.5,236.95 305.65,236.97 306.8,236.99 307.95,237.01 309.1,237.03 310.25,237.05 311.4,237.06 312.55,237.08 313.7,237.1 314.85,237.12 316,237.13 317.16,237.15 318.31,237.17 319.46,237.19 320.61,237.21 321.76,237.22 322.91,237.24 324.06,237.25 325.21,237.27 326.36,237.28 327.51,237.29 328.66,237.3 329.81,237.3 330.96,237.3 332.11,237.31 333.27,237.29 334.42,237.27 335.57,237.25 336.72,237.2 337.87,237.14 339.02,237.06 340.17,236.94 341.32,236.78 342.47,236.57 343.62,236.29 344.77,235.91 345.92,235.4 347.07,235.01 348.22,234.81 349.38,235.96 350.53,238.55 351.68,241.48 352.83,244.62 353.98,247.97 355.13,251.55 356.28,242.68 357.43,244.46 358.58,246.04 359.73,244.58 360.88,242.93 362.03,243.32 363.18,243.42 364.33,243.2 365.49,242.61 366.64,241.62 367.79,240.2 368.94,238.32 370.09,236.21 371.24,233.73 372.39,230.8 373.54,227.4 374.69,223.56 375.84,219.29 376.99,214.62 378.14,212.98 379.29,203.26 380.44,197.98 381.6,193.96 382.75,189.98 383.9,186.1 385.05,182.4 386.2,178.88 387.35,178.23 388.5,173.99 389.65,170.26 390.8,166.82 391.95,163.56 393.1,160.41 394.25,157.86 395.4,158.87 396.55,159.59 397.71,161.52 398.86,162.02 400.01,164.18 401.16,166.68 402.31,167.43 403.46,172.84 404.61,183.22 405.76,193.85 406.91,183.89 408.06,195.4 409.21,202.61 410.36,209.63 411.51,216.43 412.66,223.04 413.82,229.42 414.97,235.53 416.12,241.35 417.27,246.85 418.42,251.97 419.57,256.69 420.72,260.98 421.87,264.78 423.02,268.06 424.17,270.79 425.32,272.92 426.47,272.84 427.62,270.43 428.77,268.03 429.93,265.64 431.08,263.27 432.23,260.93 433.38,258.48 434.53,255.8 435.68,253.17 436.83,246.33 437.98,237.14 439.13,226.49 440.28,214.56 441.43,214.59 442.58,214.62 443.73,214.64 444.88,214.67 446.03,214.7 447.18,214.73 448.33,214.76 449.48,214.79 450.63,214.82 451.78,68.07 452.94,61.12 454.09,57.25 455.24,57.25 456.39,57.25 457.54,57.25 458.69,57.25 459.84,57.25 460.99,57.25 462.14,57.25 463.29,57.25 464.44,57.25 465.59,57.25 466.74,57.25 467.89,67.12 469.04,88.12 470.19,107.99 471.34,100.43 472.49,114.06 473.64,126.57 474.79,137.87 475.94,215.99 477.1,216.02 478.25,216.05 479.4,216.08 480.55,216.11 481.7,216.14 482.85,216.17 484,216.2 485.15,216.22 486.3,216.25 487.45,216.28 488.6,216.31 489.75,216.34 490.9,216.37 492.05,216.4 493.2,216.42 494.35,216.45 495.5,216.48 496.65,216.51 497.8,216.54 498.95,216.57 500.11,216.6 501.26,216.62 502.41,57.25 503.56,62.01 504.71,57.25 505.86,57.25 507.01,57.25 508.16,57.25 509.31,57.25 510.46,57.25 511.61,57.25 512.76,57.25 513.91,57.25 515.06,57.25 516.21,57.25 517.36,57.25 518.51,57.25 519.66,61.35 520.81,81.4 521.96,101.63 523.12,120.81 524.27,110.57 525.42,123.51 526.57,135.23 527.72,217.86 528.87,217.88 530.02,217.91 531.17,217.94 532.32,217.97 533.47,218 534.62,218.03 535.77,218.05 536.92,218.08 538.07,218.11 539.22,218.14 540.37,218.17 541.52,218.2 542.67,218.22 543.82,218.25 544.97,218.28 546.12,218.31 547.28,218.34 548.43,218.37 549.58,218.39 550.73,218.42 551.88,218.45 553.03,218.48 554.18,218.51 555.33,66.92 556.48,62.51 557.63,57.99 558.78,57.25 559.93,57.25 561.08,57.25 562.23,57.25 563.38,57.25 564.53,57.25 565.68,57.25 566.83,57.25 567.98,57.25 569.13,57.25 570.29,57.25 571.44,58.87 572.59,69.08 573.74,89.59 574.89,109.11 576.04,95.96 577.19,116.1 578.34,128.47 579.49,139.67 580.64,219.73 581.79,219.76 582.94,219.79 584.09,219.82 585.24,219.85 586.39,219.88 587.54,219.9 588.69,219.93 589.84,219.96 590.99,219.99 592.14,220.02 593.3,220.04 594.45,220.07 595.6,220.1 596.75,220.13 597.9,220.15 599.05,220.18 600.2,220.21 601.35,220.24 602.5,220.27 603.65,220.29 604.8,220.32 605.95,220.35 607.1,220.38 608.25,67.31 609.4,62.72 610.55,58.73 611.7,57.25 612.85,57.25 614,57.25 615.15,57.25 616.3,57.25 617.46,57.25 618.61,57.25 619.76,57.25 620.91,57.25 622.06,57.25 623.21,58.91 624.36,67.53 625.51,85.16 626.66,105.02 627.81,123.82 628.96,114.15 630.11,126.86 631.26,138.42 632.41,221.57 633.56,221.6 634.71,221.63 635.86,221.65 637.01,221.68 638.16,221.71 639.31,221.74 640.47,221.76 641.62,221.79 642.77,221.82 643.92,221.85 645.07,221.87 646.22,221.9 647.37,221.93 648.52,221.96 649.67,221.99 650.82,222.01 651.97,222.04 653.12,222.07 654.27,222.1 655.42,222.12 656.57,222.15 657.72,222.18 658.87,222.21 660.02,57.25 661.17,65.46 662.32,61.06 663.48,57.28 664.63,57.25 665.78,57.25 666.93,57.25 668.08,57.25 669.23,57.25 670.38,57.25 671.53,57.25 672.68,57.25 673.83,57.25 674.98,57.25 676.13,62.52 677.28,71.03 678.43,91.25 679.58,110.57 680.73,128.91 681.88,117.45 683.03,129.6 684.18,140.58 685.33,223.42 686.48,223.45 687.64,223.48 688.79,223.51 689.94,223.53 691.09,223.56 692.24,223.59 693.39,223.62 694.54,223.64 695.69,223.67 696.84,223.7 697.99,223.73 699.14,223.75 700.29,223.78 701.44,223.81 702.59,223.83 703.74,223.86 704.89,223.89 706.04,223.92 707.19,223.94 708.34,223.97 709.49,224 710.65,224.03 711.8,57.25 712.95,67.75 714.1,63.49 715.25,59.8 716.4,57.25 717.55,57.25 718.7,57.25 719.85,57.25 721,57.25 722.15,57.25 723.3,57.25 724.45,57.25 725.6,57.25 726.75,57.25 727.9,63.37 729.05,71.92 730.2,91.88 731.35,111.27 732.5,129.65 733.66,118.12 734.81,130.18 735.96,141.05 737.11,225.24 738.26,225.27 739.41,225.3 740.56,225.32 741.71,225.35 742.86,225.38 744.01,225.4 745.16,225.43 746.31,225.46 747.46,225.49 748.61,225.51 749.76,225.54 750.91,225.57 752.06,225.59 753.21,225.62 754.36,225.65 755.51,225.67 756.66,225.7 757.82,225.73 758.97,225.75 760.12,225.78 761.27,225.81 762.42,225.84 763.57,225.86 764.72,65.73 765.87,61.57 767.02,57.9 768.17,57.25 769.32,57.25 770.47,57.25 771.62,57.25 772.77,57.25 773.92,57.25 775.07,57.25 776.22,57.25 777.37,57.25 778.52,57.25 779.67,61.21 780.83,69.92 781.98,87.03 783.13,106.42 784.28,124.82 785.43,104.83 786.58,117.69 787.73,129.25 788.88,227.06 790.03,227.09 791.18,227.12 792.33,227.14 793.48,227.17 794.63,227.2 795.78,227.22 796.93,227.25 798.08,227.28 799.23,227.3 800.38,227.33 801.53,227.36 802.69,227.38 803.84,227.41 804.99,227.44 806.14,227.46 807.29,227.49 808.44,227.52 809.59,227.54 810.74,227.57 811.89,227.6 813.04,227.62 814.2,227.65 815.35,57.25 816.5,57.25 817.65,57.25 818.8,57.25 819.95,57.25 821.1,57.25 822.25,57.25 823.4,57.25 824.55,57.25 825.7,57.25 826.86,57.25 828.01,57.25 829.16,57.25 830.31,57.25 831.46,57.25 832.61,57.25 833.76,67.4 834.91,90.23 836.06,81.53 837.21,95.94 838.36,108.78 839.52,119.89 840.67,228.91 841.82,228.94 842.97,228.96 844.12,228.99 845.27,229.01 846.42,229.04 847.57,229.07 848.72,229.09 849.87,229.12 851.02,229.15 852.18,229.17 853.33,229.2 854.48,229.23 855.63,229.25 856.78,229.28 857.93,229.3 859.08,229.33 860.23,229.36 861.38,229.38 862.53,229.41 863.69,229.44 864.84,229.46 865.99,57.25 867.14,57.25 868.29,57.25 869.44,57.25 870.59,57.25 871.74,57.25 872.89,57.25 874.04,57.25 874.96,57.25 875.08,57.25 875.19,57.25 875.31,57.25 875.42,57.25 875.54,57.25 875.65,57.25 875.77,57.25 875.88,57.25 876,57.25 876,57.25"/>
<circle cx="64" cy="156,66" r="4" fill="#888"/>
<circle cx="876" cy="57,25" r="4" fill="#222"/>
</svg>
