<?xml version="1.0" encoding="UTF-8"?>
<svg xmlns="http://www.w3.org/2000/svg" width="900" height="420" viewBox="0 0 900 420">
<rect width="100%" height="100%" fill="#fafafa"/>
<rect x="64" y="40" width="812" height="332" fill="#fff" stroke="#ccc"/>
<text x="450" y="24" text-anchor="middle" font-family="Segoe UI,Arial" font-size="16" fill="#222">Ground track XZ (pad at 0,0)</text>
<text x="450" y="408" text-anchor="middle" font-family="Segoe UI,Arial" font-size="12" fill="#555">X, m</text>
<text x="16" y="210" text-anchor="middle" font-family="Segoe UI,Arial" font-size="12" fill="#555" transform="rotate(-90 16 210)">Z, m</text>
<line x1="64" y1="40" x2="876" y2="40" stroke="#eee"/>
<text x="58" y="44" text-anchor="end" font-size="10" fill="#666" font-family="Consolas,monospace">0.6</text>
<line x1="64" y1="106,4" x2="876" y2="106,4" stroke="#eee"/>
<text x="58" y="110,4" text-anchor="end" font-size="10" fill="#666" font-family="Consolas,monospace">0.47</text>
<line x1="64" y1="172,8" x2="876" y2="172,8" stroke="#eee"/>
<text x="58" y="176,8" text-anchor="end" font-size="10" fill="#666" font-family="Consolas,monospace">0.34</text>
<line x1="64" y1="239,2" x2="876" y2="239,2" stroke="#eee"/>
<text x="58" y="243,2" text-anchor="end" font-size="10" fill="#666" font-family="Consolas,monospace">0.21</text>
<line x1="64" y1="305,6" x2="876" y2="305,6" stroke="#eee"/>
<text x="58" y="309,6" text-anchor="end" font-size="10" fill="#666" font-family="Consolas,monospace">0.08</text>
<line x1="64" y1="372" x2="876" y2="372" stroke="#eee"/>
<text x="58" y="376" text-anchor="end" font-size="10" fill="#666" font-family="Consolas,monospace">-0.04</text>
<polyline fill="none" stroke="#222" stroke-width="2" points="876,349.05 875.96,349.05 875.88,349.05 875.78,349.05 875.66,349.05 875.5,349.05 875.33,349.05 875.12,349.05 874.9,349.05 874.64,349.05 874.37,349.05 874.08,349.05 873.76,349.05 873.43,349.05 873.07,349.05 872.7,349.05 872.31,349.05 871.9,349.05 871.48,349.05 871.04,349.05 870.59,349.05 870.12,349.05 869.64,349.05 869.15,349.05 868.65,349.05 868.14,349.05 867.61,349.05 867.08,349.05 866.54,349.05 865.99,349.05 865.44,349.05 864.87,349.05 864.3,349.05 863.73,349.05 863.15,349.05 862.56,349.05 861.97,349.05 861.38,349.05 860.78,349.05 860.18,349.05 859.58,349.05 858.97,349.05 858.36,349.05 857.76,349.05 857.15,349.05 856.54,349.05 855.92,349.05 855.31,349.05 854.7,349.05 854.09,349.05 853.48,349.05 852.87,349.05 852.26,349.05 851.65,349.05 851.04,349.05 850.43,349.05 849.82,349.05 849.22,349.05 848.62,349.05 848.01,349.06 847.41,349.06 846.81,349.07 846.22,349.07 845.62,349.07 845.03,349.08 844.44,349.08 843.85,349.09 843.26,349.09 842.67,349.1 842.09,349.1 841.5,349.1 840.92,349.1 840.34,349.1 839.77,349.1 839.19,349.09 838.62,349.08 838.05,349.07 837.48,349.06 836.91,349.05 836.34,349.04 835.78,349.02 835.22,349.01 834.66,349 834.1,348.99 833.54,348.98 832.98,348.98 832.43,348.98 831.88,348.97 831.33,348.98 830.78,348.98 830.23,348.98 829.68,348.99 829.13,348.99 828.59,349 828.04,349 827.5,349.01 826.96,349.01 826.42,349.02 825.88,349.02 825.34,349.03 824.8,349.03 824.26,349.04 823.72,349.04 823.19,349.05 822.65,349.05 822.11,349.06 821.58,349.06 821.05,349.06 820.51,349.06 819.98,349.07 819.45,349.07 818.91,349.07 818.38,349.07 817.85,349.07 817.32,349.06 816.79,349.06 816.26,349.06 815.73,349.05 815.21,349.05 814.68,349.04 814.15,349.04 813.62,349.03 813.1,349.02 812.57,349.01 812.04,349 811.52,348.99 810.99,348.97 810.47,348.96 809.94,348.94 809.42,348.93 808.89,348.91 808.37,348.89 807.84,348.87 807.32,348.85 806.8,348.83 806.27,348.8 805.75,348.78 805.23,348.75 804.7,348.72 804.18,348.69 803.66,348.66 803.14,348.63 802.62,348.6 802.09,348.56 801.57,348.52 801.05,348.49 800.53,348.45 800.01,348.41 799.49,348.36 798.97,348.32 798.45,348.28 797.93,348.23 797.41,348.18 796.89,348.13 796.37,348.08 795.85,348.03 795.33,347.98 794.81,347.92 794.29,347.86 793.77,347.81 793.25,347.75 792.73,347.68 792.21,347.62 791.69,347.56 791.18,347.49 790.66,347.42 790.14,347.35 789.62,347.28 789.1,347.21 788.58,347.14 788.07,347.06 787.55,346.98 787.03,346.91 786.51,346.83 786,346.74 785.48,346.66 784.96,346.58 784.44,346.49 783.93,346.4 783.41,346.31 782.89,346.22 782.38,346.13 781.86,346.04 781.34,345.94 780.83,345.84 780.31,345.74 779.8,345.64 779.28,345.54 778.76,345.44 778.25,345.33 777.73,345.23 777.22,345.12 776.7,345.01 776.19,344.9 775.67,344.78 775.16,344.67 774.64,344.55 774.13,344.44 773.61,344.32 773.1,344.2 772.58,344.07 772.07,343.95 771.56,343.82 771.04,343.7 770.53,343.57 770.01,343.44 769.5,343.31 768.99,343.17 768.47,343.04 767.96,342.9 767.45,342.76 766.93,342.62 766.42,342.48 765.91,342.34 765.39,342.19 764.88,342.04 764.37,341.9 763.86,341.75 763.34,341.6 762.83,341.44 762.32,341.29 761.81,341.13 761.3,340.97 760.78,340.81 760.27,340.65 759.76,340.49 759.25,340.33 758.74,340.16 758.23,339.99 757.72,339.83 757.21,339.65 756.7,339.48 756.18,339.31 755.67,339.13 755.16,338.96 754.65,338.78 754.14,338.6 753.63,338.42 753.12,338.23 752.61,338.05 752.1,337.86 751.59,337.67 751.09,337.48 750.58,337.29 750.07,337.1 749.56,336.9 749.05,336.71 748.54,336.51 748.03,336.31 747.52,336.11 747.02,335.91 746.51,335.7 746,335.5 745.49,335.29 744.98,335.08 744.48,334.87 743.97,334.66 743.46,334.45 742.95,334.23 742.45,334.01 741.94,333.79 741.43,333.57 740.93,333.35 740.42,333.13 739.91,332.9 739.4,332.68 738.9,332.45 738.39,332.22 737.89,331.99 737.38,331.75 736.87,331.52 736.37,331.28 735.86,331.05 735.36,330.81 734.85,330.56 734.34,330.32 733.84,330.08 733.33,329.83 732.83,329.58 732.32,329.34 731.82,329.08 731.31,328.83 730.81,328.58 730.3,328.32 729.8,328.07 729.29,327.81 728.79,327.55 728.28,327.28 727.78,327.02 727.27,326.75 726.77,326.49 726.26,326.22 725.76,325.95 725.25,325.68 724.75,325.4 724.24,325.13 723.74,324.85 723.24,324.57 722.73,324.29 722.23,324.01 721.72,323.73 721.22,323.45 720.71,323.16 720.21,322.87 719.7,322.58 719.2,322.29 718.69,322 718.19,321.7 717.68,321.41 717.18,321.11 716.67,320.81 716.17,320.51 715.66,320.21 715.16,319.9 714.65,319.6 714.15,319.29 713.64,318.98 713.14,318.67 712.63,318.36 712.13,318.04 711.62,317.73 711.12,317.41 710.61,317.09 710.1,316.77 709.6,316.45 709.09,316.12 708.58,315.8 708.08,315.47 707.57,315.14 707.06,314.81 706.56,314.48 706.05,314.14 705.54,313.81 705.03,313.47 704.52,313.13 704.02,312.79 703.51,312.45 703,312.1 702.49,311.76 701.98,311.41 701.47,311.06 700.96,310.71 700.45,310.36 699.94,310 699.43,309.65 698.92,309.29 698.41,308.93 697.89,308.57 697.38,308.21 696.87,307.84 696.36,307.48 695.84,307.11 695.33,306.74 694.82,306.37 694.3,305.99 693.79,305.62 693.27,305.24 692.76,304.86 692.24,304.48 691.73,304.1 691.21,303.72 690.69,303.33 690.18,302.95 689.66,302.56 689.14,302.17 688.62,301.78 688.1,301.38 687.58,300.99 687.06,300.59 686.54,300.19 686.02,299.79 685.5,299.39 684.97,298.98 684.45,298.57 683.93,298.17 683.4,297.76 682.88,297.34 682.35,296.93 681.82,296.52 681.3,296.1 680.77,295.68 680.24,295.26 679.71,294.83 679.18,294.4 678.65,293.96 678.12,293.52 677.59,293.08 677.05,292.64 676.52,292.19 675.98,291.74 675.45,291.28 674.91,290.83 674.37,290.37 673.83,289.91 673.29,289.44 672.75,288.98 672.21,288.51 671.67,288.05 671.13,287.59 670.59,287.13 670.04,286.66 669.5,286.19 668.95,285.73 668.41,285.26 667.86,284.79 667.31,284.32 666.76,283.85 666.22,283.38 665.67,282.91 665.11,282.44 664.56,281.97 664.01,281.51 663.46,281.05 662.9,280.59 662.35,280.14 661.79,279.69 661.23,279.24 660.68,278.79 660.12,278.34 659.56,277.9 659,277.46 658.44,277.01 657.88,276.57 657.31,276.12 656.75,275.67 656.18,275.22 655.62,274.77 655.05,274.31 654.49,273.86 653.92,273.4 653.35,272.94 652.78,272.48 652.21,272.02 651.64,271.56 651.06,271.11 650.49,270.65 649.92,270.2 649.34,269.75 648.77,269.3 648.19,268.85 647.61,268.4 647.03,267.95 646.45,267.5 645.87,267.05 645.29,266.6 644.71,266.15 644.12,265.69 643.54,265.23 642.95,264.78 642.36,264.32 641.78,263.87 641.19,263.42 640.6,262.98 640,262.53 639.41,262.08 638.82,261.63 638.22,261.17 637.63,260.72 637.03,260.26 636.43,259.81 635.83,259.36 635.23,258.91 634.63,258.46 634.03,258.01 633.42,257.56 632.82,257.11 632.21,256.66 631.6,256.21 630.99,255.76 630.38,255.31 629.77,254.86 629.16,254.41 628.54,253.96 627.92,253.5 627.31,253.06 626.69,252.61 626.07,252.16 625.44,251.71 624.82,251.26 624.19,250.81 623.57,250.36 622.94,249.91 622.31,249.46 621.68,249.01 621.05,248.56 620.41,248.11 619.78,247.66 619.14,247.21 618.5,246.77 617.86,246.32 617.22,245.87 616.58,245.42 615.93,244.97 615.29,244.52 614.64,244.07 613.99,243.63 613.34,243.18 612.68,242.73 612.03,242.28 611.37,241.83 610.72,241.39 610.06,240.94 609.39,240.49 608.73,240.04 608.07,239.59 607.4,239.15 606.73,238.7 606.06,238.25 605.39,237.81 604.72,237.36 604.04,236.91 603.36,236.46 602.68,236.02 602,235.57 601.32,235.12 600.64,234.68 599.95,234.23 599.26,233.78 598.57,233.34 597.88,232.89 597.19,232.44 596.49,232 595.79,231.55 595.09,231.11 594.39,230.66 593.69,230.21 592.98,229.77 592.28,229.32 591.57,228.88 590.85,228.43 590.14,227.99 589.42,227.54 588.71,227.09 587.99,226.65 587.27,226.2 586.54,225.76 585.82,225.31 585.09,224.87 584.36,224.42 583.63,223.98 582.89,223.53 582.15,223.09 581.42,222.64 580.68,222.2 579.93,221.76 579.19,221.31 578.44,220.87 577.69,220.42 576.94,219.98 576.18,219.53 575.43,219.09 574.67,218.65 573.91,218.2 573.14,217.76 572.38,217.31 571.61,216.87 570.84,216.43 570.07,215.98 569.29,215.54 568.52,215.1 567.74,214.65 566.95,214.21 566.17,213.77 565.38,213.32 564.59,212.88 563.8,212.44 563.01,211.99 562.21,211.55 561.41,211.11 560.61,210.67 559.81,210.22 559,209.78 558.19,209.34 557.38,208.89 556.56,208.45 555.75,208.01 554.93,207.57 554.1,207.13 553.28,206.68 552.45,206.24 551.62,205.8 550.79,205.36 549.95,204.92 549.12,204.47 548.28,204.03 547.43,203.59 546.59,203.15 545.74,202.71 544.89,202.27 544.03,201.82 543.17,201.38 542.31,200.94 541.45,200.5 540.59,200.06 539.72,199.62 538.85,199.18 537.97,198.74 537.1,198.29 536.22,197.85 535.33,197.41 534.45,196.97 533.56,196.53 532.67,196.09 531.77,195.65 530.88,195.21 529.98,194.77 529.07,194.33 528.17,193.89 527.26,193.45 526.35,193.01 525.43,192.57 524.51,192.13 523.59,191.69 522.67,191.25 521.74,190.81 520.81,190.37 519.87,189.93 518.94,189.49 518,189.05 517.05,188.61 516.11,188.17 515.16,187.73 514.2,187.29 513.25,186.85 512.29,186.41 511.33,185.97 510.36,185.53 509.39,185.1 508.42,184.66 507.44,184.22 506.46,183.78 505.48,183.34 504.5,182.9 503.51,182.46 502.51,182.02 501.52,181.59 500.52,181.15 499.52,180.71 498.51,180.27 497.5,179.83 496.49,179.39 495.47,178.95 494.45,178.52 493.43,178.08 492.4,177.64 491.37,177.2 490.34,176.76 489.3,176.33 488.26,175.89 487.21,175.45 486.17,175.01 485.11,174.57 484.06,174.14 483,173.7 481.94,173.26 480.87,172.82 479.8,172.39 478.72,171.95 477.65,171.51 476.56,171.08 475.48,170.64 474.39,170.2 473.29,169.76 472.19,169.33 471.09,168.89 469.99,168.45 468.88,168.02 467.76,167.58 466.64,167.14 465.52,166.7 464.4,166.27 463.27,165.83 462.13,165.4 461,164.96 459.86,164.52 458.71,164.09 457.56,163.65 456.41,163.21 455.25,162.78 454.09,162.34 452.93,161.9 451.76,161.47 450.59,161.03 449.41,160.6 448.23,160.16 447.04,159.72 445.86,159.29 444.66,158.85 443.47,158.42 442.27,157.98 441.06,157.54 439.86,157.11 438.64,156.67 437.43,156.24 436.21,155.8 434.98,155.37 433.76,154.93 432.52,154.5 431.29,154.06 430.05,153.62 428.8,153.19 427.56,152.75 426.3,152.32 425.05,151.88 423.79,151.45 422.52,151.01 421.25,150.58 419.98,150.14 418.7,149.71 417.42,149.27 416.14,148.84 414.85,148.41 413.55,147.97 412.26,147.54 410.95,147.1 409.65,146.67 408.34,146.23 407.02,145.8 405.7,145.36 404.38,144.93 403.05,144.49 401.72,144.06 400.38,143.62 399.04,143.19 397.69,142.76 396.34,142.32 394.99,141.89 393.63,141.45 392.27,141.02 390.9,140.59 389.53,140.15 388.15,139.72 386.77,139.28 385.38,138.85 383.99,138.42 382.59,137.98 381.2,137.55 379.79,137.12 378.38,136.68 376.97,136.25 375.55,135.81 374.13,135.38 372.7,134.95 371.27,134.51 369.83,134.08 368.39,133.65 366.94,133.21 365.49,132.78 364.03,132.35 362.57,131.91 361.11,131.48 359.63,131.05 358.16,130.61 356.68,130.18 355.19,129.75 353.7,129.31 352.21,128.88 350.71,128.45 349.2,128.01 347.69,127.58 346.18,127.15 344.65,126.72 343.13,126.28 341.6,125.85 340.06,125.42 338.52,124.98 336.98,124.55 335.43,124.12 333.87,123.69 332.31,123.25 330.74,122.82 329.17,122.39 327.59,121.96 326.01,121.52 324.43,121.09 322.83,120.66 321.24,120.23 319.63,119.79 318.02,119.36 316.41,118.93 314.79,118.5 313.16,118.06 311.53,117.63 309.9,117.2 308.26,116.77 306.61,116.34 304.96,115.9 303.3,115.47 301.64,115.04 299.97,114.61 298.29,114.18 296.61,113.74 294.92,113.31 293.23,112.88 291.53,112.45 289.83,112.01 288.12,111.58 286.41,111.15 284.68,110.72 282.96,110.29 281.22,109.85 279.48,109.42 277.74,108.99 275.99,108.56 274.23,108.13 272.47,107.69 270.7,107.26 268.92,106.83 267.14,106.4 265.35,105.97 263.56,105.54 261.75,105.11 259.95,104.67 258.13,104.24 256.31,103.81 254.49,103.38 252.65,102.95 250.81,102.52 248.97,102.08 247.12,101.65 245.26,101.22 243.39,100.79 241.51,100.36 239.61,99.93 237.71,99.5 235.8,99.06 233.88,98.63 231.95,98.2 230.01,97.77 228.06,97.34 226.11,96.91 224.15,96.48 222.17,96.04 220.2,95.61 218.21,95.18 216.22,94.75 214.22,94.32 212.22,93.89 210.21,93.46 208.19,93.02 206.17,92.59 204.14,92.16 202.11,91.73 200.07,91.3 198.03,90.87 195.99,90.44 193.94,90.01 191.89,89.58 189.84,89.14 187.78,88.71 185.72,88.28 183.66,87.85 181.6,87.42 179.54,86.99 177.47,86.56 175.41,86.13 173.34,85.7 171.27,85.26 169.2,84.83 167.13,84.4 165.06,83.97 162.99,83.54 160.92,83.11 158.85,82.68 156.78,82.25 154.71,81.82 152.64,81.39 150.57,80.96 148.5,80.53 146.42,80.11 144.35,79.68 142.28,79.25 140.21,78.83 138.14,78.4 136.07,77.97 134,77.55 131.93,77.12 129.86,76.7 127.79,76.27 125.72,75.84 123.65,75.42 121.58,74.99 119.72,74.61 119.52,74.57 119.31,74.52 119.1,74.48 118.9,74.44 118.69,74.39 118.48,74.35 118.28,74.31 118.07,74.27 117.86,74.22 117.66,74.18 117.45,74.14 117.24,74.1 117.03,74.05 116.83,74.01 116.62,73.97 116.41,73.93 116.21,73.88 116,73.84 115.79,73.8 115.59,73.75 115.38,73.71 115.17,73.67 114.97,73.63 114.76,73.58 114.55,73.54 114.35,73.5 114.14,73.46 113.93,73.41 113.73,73.37 113.52,73.33 113.31,73.28 113.11,73.24 112.9,73.2 112.69,73.16 112.49,73.11 112.28,73.07 112.07,73.03 111.87,72.99 111.66,72.94 111.45,72.9 111.25,72.86 111.04,72.81 110.83,72.77 110.63,72.73 110.42,72.69 110.21,72.64 110.01,72.6 109.8,72.56 109.59,72.52 109.39,72.47 109.18,72.43 108.97,72.39 108.77,72.34 108.56,72.3 108.35,72.26 108.15,72.22 107.94,72.17 107.73,72.13 107.53,72.09 107.32,72.04 107.11,72 106.91,71.96 106.7,71.92 106.49,71.87 106.29,71.83 106.08,71.79 105.87,71.74 105.67,71.7 105.46,71.66 105.25,71.62 105.05,71.57 104.84,71.53 104.63,71.49 104.43,71.44 104.22,71.4 104.01,71.36 103.81,71.32 103.6,71.27 103.39,71.23 103.19,71.19 102.98,71.14 102.78,71.1 102.57,71.06 102.36,71.01 102.16,70.97 101.95,70.93 101.74,70.89 101.54,70.84 101.33,70.8 101.12,70.76 100.92,70.71 100.71,70.67 100.5,70.63 100.3,70.58 100.09,70.54 99.88,70.5 99.68,70.46 99.47,70.41 99.26,70.37 99.06,70.33 98.85,70.28 98.64,70.24 98.44,70.2 98.23,70.15 98.03,70.11 97.82,70.07 97.61,70.03 97.41,69.98 97.2,69.94 96.99,69.9 96.79,69.85 96.58,69.81 96.37,69.77 96.17,69.72 95.96,69.68 95.75,69.64 95.55,69.59 95.34,69.55 95.14,69.51 94.93,69.46 94.72,69.42 94.52,69.38 94.31,69.33 94.1,69.29 93.9,69.25 93.69,69.21 93.48,69.16 93.28,69.12 93.07,69.08 92.86,69.03 92.66,68.99 92.45,68.95 92.25,68.9 92.04,68.86 91.83,68.82 91.63,68.77 91.42,68.73 91.21,68.69 91.01,68.64 90.8,68.6 90.59,68.56 90.39,68.51 90.18,68.47 89.98,68.43 89.77,68.38 89.56,68.34 89.36,68.3 89.15,68.25 88.94,68.21 88.74,68.17 88.53,68.12 88.32,68.08 88.12,68.04 87.91,67.99 87.71,67.95 87.5,67.91 87.29,67.86 87.09,67.82 86.88,67.78 86.67,67.73 86.47,67.69 86.26,67.64 86.06,67.6 85.85,67.56 85.64,67.51 85.44,67.47 85.23,67.43 85.02,67.38 84.82,67.34 84.61,67.3 84.41,67.25 84.2,67.21 83.99,67.17 83.79,67.12 83.58,67.08 83.37,67.04 83.17,66.99 82.96,66.95 82.76,66.9 82.55,66.86 82.34,66.82 82.14,66.77 81.93,66.73 81.72,66.69 81.52,66.64 81.31,66.6 81.11,66.56 80.9,66.51 80.69,66.47 80.49,66.42 80.28,66.38 80.07,66.34 79.87,66.29 79.66,66.25 79.46,66.21 79.25,66.16 79.04,66.12 78.84,66.07 78.63,66.03 78.43,65.99 78.22,65.94 78.01,65.9 77.81,65.85 77.6,65.81 77.39,65.77 77.19,65.72 76.98,65.68 76.78,65.64 76.57,65.59 76.36,65.55 76.16,65.5 75.95,65.46 75.75,65.42 75.54,65.37 75.33,65.33 75.13,65.28 74.92,65.24 74.71,65.2 74.51,65.15 74.3,65.11 74.1,65.06 73.89,65.02 73.68,64.98 73.48,64.93 73.27,64.89 73.07,64.84 72.86,64.8 72.65,64.76 72.45,64.71 72.24,64.67 72.04,64.62 71.83,64.58 71.62,64.54 71.42,64.49 71.21,64.45 71,64.4 70.8,64.36 70.59,64.32 70.39,64.27 70.18,64.23 69.97,64.18 69.77,64.14 69.56,64.09 69.36,64.05 69.15,64.01 68.94,63.96 68.74,63.92 68.53,63.87 68.33,63.83 68.12,63.78 67.91,63.74 67.71,63.7 67.5,63.65 67.3,63.61 67.09,63.56 66.88,63.52 66.68,63.47 66.47,63.43 66.27,63.39 66.06,63.34 65.85,63.3 65.65,63.25 65.44,63.21 65.24,63.16 65.03,63.12 64.82,63.07 64.62,63.03 64.41,62.99 64.21,62.94 64,62.9 64,62.9"/>
<circle cx="876" cy="349,05" r="4" fill="#888"/>
<circle cx="64" cy="62,9" r="4" fill="#222"/>
</svg>
