<?xml version="1.0" encoding="UTF-8"?>
<svg xmlns="http://www.w3.org/2000/svg" width="900" height="420" viewBox="0 0 900 420">
<rect width="100%" height="100%" fill="#fafafa"/>
<rect x="64" y="40" width="812" height="332" fill="#fff" stroke="#ccc"/>
<text x="450" y="24" text-anchor="middle" font-family="Segoe UI,Arial" font-size="16" fill="#222">Altitude h(t)</text>
<text x="450" y="408" text-anchor="middle" font-family="Segoe UI,Arial" font-size="12" fill="#555">t, s</text>
<text x="16" y="210" text-anchor="middle" font-family="Segoe UI,Arial" font-size="12" fill="#555" transform="rotate(-90 16 210)">h, m</text>
<line x1="64" y1="40" x2="876" y2="40" stroke="#eee"/>
<text x="58" y="44" text-anchor="end" font-size="10" fill="#666" font-family="Consolas,monospace">1940.27</text>
<line x1="64" y1="106,4" x2="876" y2="106,4" stroke="#eee"/>
<text x="58" y="110,4" text-anchor="end" font-size="10" fill="#666" font-family="Consolas,monospace">1523.35</text>
<line x1="64" y1="172,8" x2="876" y2="172,8" stroke="#eee"/>
<text x="58" y="176,8" text-anchor="end" font-size="10" fill="#666" font-family="Consolas,monospace">1106.44</text>
<line x1="64" y1="239,2" x2="876" y2="239,2" stroke="#eee"/>
<text x="58" y="243,2" text-anchor="end" font-size="10" fill="#666" font-family="Consolas,monospace">689.52</text>
<line x1="64" y1="305,6" x2="876" y2="305,6" stroke="#eee"/>
<text x="58" y="309,6" text-anchor="end" font-size="10" fill="#666" font-family="Consolas,monospace">272.61</text>
<line x1="64" y1="372" x2="876" y2="372" stroke="#eee"/>
<text x="58" y="376" text-anchor="end" font-size="10" fill="#666" font-family="Consolas,monospace">-144.31</text>
<line x1="64" y1="349,0169" x2="876" y2="349,0169" stroke="#999" stroke-dasharray="4 3"/>
<polyline fill="none" stroke="#222" stroke-width="2" points="64,62.9 66.53,63.45 69.06,64.01 71.6,64.56 74.13,65.12 76.66,65.67 79.19,66.22 81.72,66.77 84.26,67.32 86.79,67.87 89.32,68.42 91.85,68.97 94.38,69.52 96.91,70.06 99.45,70.61 101.98,71.15 104.51,71.7 107.04,72.24 109.57,72.79 112.11,73.33 114.64,73.87 117.17,74.41 119.7,74.95 122.23,75.49 124.77,76.03 127.3,76.57 129.83,77.11 132.36,77.64 134.89,78.18 137.43,78.71 139.96,79.25 142.49,79.78 145.02,80.32 147.55,80.85 150.09,81.38 152.62,81.91 155.15,82.45 157.68,82.98 160.21,83.51 162.74,84.03 165.28,84.56 167.81,85.09 170.34,85.62 172.87,86.14 175.4,86.67 177.94,87.19 180.47,87.72 183,88.24 185.53,88.77 188.06,89.29 190.6,89.81 193.13,90.34 195.66,90.86 198.19,91.39 200.72,91.91 203.26,92.44 205.79,92.96 208.32,93.49 210.85,94.01 213.38,94.54 215.92,95.07 218.45,95.6 220.98,96.13 223.51,96.66 226.04,97.19 228.58,97.73 231.11,98.26 233.64,98.8 236.17,99.34 238.7,99.88 241.24,100.43 243.77,100.97 246.3,101.52 248.83,102.08 251.36,102.63 253.9,103.19 256.43,103.75 258.96,104.32 261.49,104.89 264.02,105.46 266.56,106.04 269.09,106.62 271.62,107.2 274.15,107.78 276.68,108.37 279.22,108.97 281.75,109.56 284.28,110.16 286.81,110.76 289.34,111.37 291.88,111.98 294.41,112.59 296.94,113.2 299.47,113.82 302,114.45 304.53,115.07 307.07,115.7 309.6,116.33 312.13,116.97 314.66,117.61 317.19,118.26 319.73,118.9 322.26,119.55 324.79,120.21 327.32,120.87 329.85,121.53 332.39,122.2 334.92,122.87 337.45,123.54 339.98,124.22 342.51,124.9 345.05,125.59 347.58,126.28 350.11,126.98 352.64,127.67 355.17,128.38 357.71,129.08 360.24,129.8 362.77,130.51 365.3,131.23 367.83,131.96 370.37,132.69 372.9,133.42 375.43,134.16 377.96,134.9 380.49,135.65 383.03,136.4 385.56,137.16 388.09,137.92 390.62,138.68 393.15,139.45 395.69,140.23 398.22,141.01 400.75,141.79 403.28,142.58 405.81,143.37 408.35,144.17 410.88,144.97 413.41,145.78 415.94,146.59 418.47,147.41 421.01,148.23 423.54,149.06 426.07,149.89 428.6,150.72 431.13,151.56 433.67,152.4 436.2,153.25 438.73,154.1 441.26,154.96 443.79,155.82 446.33,156.68 448.86,157.54 451.39,158.42 453.92,159.29 456.45,160.17 458.99,161.05 461.52,161.93 464.05,162.82 466.58,163.72 469.11,164.61 471.65,165.51 474.18,166.41 476.71,167.32 479.24,168.23 481.77,169.14 484.3,170.06 486.84,170.98 489.37,171.9 491.9,172.83 494.43,173.75 496.96,174.69 499.5,175.62 502.03,176.56 504.56,177.5 507.09,178.45 509.62,179.39 512.16,180.34 514.69,181.3 517.22,182.25 519.75,183.21 522.28,184.18 524.82,185.14 527.35,186.11 529.88,187.08 532.41,188.05 534.94,189.03 537.48,190.01 540.01,190.99 542.54,191.98 545.07,192.97 547.6,193.96 550.14,194.95 552.67,195.95 555.2,196.95 557.73,197.95 560.26,198.95 562.8,199.96 565.33,200.97 567.86,201.99 570.39,203 572.92,204.02 575.46,205.04 577.99,206.07 580.52,207.09 583.05,208.12 585.58,209.16 588.12,210.19 590.65,211.23 593.18,212.27 595.71,213.32 598.24,214.36 600.78,215.41 603.31,216.46 605.84,217.52 608.37,218.58 610.9,219.64 613.44,220.7 615.97,221.77 618.5,222.84 621.03,223.91 623.56,224.98 626.1,226.06 628.63,227.14 631.16,228.22 633.69,229.31 636.22,230.4 638.76,231.49 641.29,232.59 643.82,233.69 646.35,234.79 648.88,235.89 651.42,237 653.95,238.11 656.48,239.22 659.01,240.34 661.54,241.46 664.07,242.58 666.61,243.71 669.14,244.84 671.67,245.97 674.2,247.1 676.73,248.24 679.27,249.38 681.8,250.53 684.33,251.68 686.86,252.83 689.39,253.99 691.93,255.14 694.46,256.31 696.99,257.47 699.52,258.64 702.05,259.81 704.59,260.99 707.12,262.17 709.65,263.35 712.18,264.54 714.71,265.73 717.25,266.92 719.78,268.12 722.31,269.32 724.84,270.52 727.37,271.73 729.91,272.94 732.44,274.16 734.97,275.38 737.5,276.6 740.03,277.83 742.57,279.06 745.1,280.3 747.63,281.54 750.16,282.78 752.69,284.02 755.23,285.27 757.76,286.53 760.29,287.79 762.82,289.05 765.35,290.32 767.89,291.59 770.42,292.86 772.95,294.14 775.48,295.42 778.01,296.71 780.55,298 783.08,299.29 785.61,300.59 788.14,301.89 790.67,303.2 793.21,304.5 795.74,305.82 798.27,307.13 800.8,308.46 803.33,309.78 805.87,311.11 808.4,312.44 810.93,313.77 813.46,315.11 815.99,316.45 818.53,317.8 821.06,319.14 823.59,320.5 826.12,321.85 828.65,323.21 831.18,324.57 833.72,325.93 836.25,327.29 838.78,328.66 841.31,330.04 843.84,331.41 846.38,332.79 848.91,334.17 851.44,335.55 853.97,336.94 856.5,338.32 859.04,339.72 861.57,341.11 864.1,342.51 866.63,343.9 869.16,345.31 871.7,346.71 874.23,348.12 875.75,348.96 876,349.1 876,349.1"/>
<circle cx="64" cy="62,9" r="4" fill="#888"/>
<circle cx="876" cy="349,1" r="4" fill="#222"/>
</svg>
